<?xml version="1.0" encoding="utf-8"?>
<!-- Generator: Adobe Illustrator 16.0.0, SVG Export Plug-In . SVG Version: 6.00 Build 0)  -->
<!DOCTYPE svg PUBLIC "-//W3C//DTD SVG 1.1//EN" "http://www.w3.org/Graphics/SVG/1.1/DTD/svg11.dtd">
<svg version="1.1" id="样式6" xmlns="http://www.w3.org/2000/svg" xmlns:xlink="http://www.w3.org/1999/xlink" x="0px" y="0px"
	 width="1151.839px" height="1151.839px" viewBox="0 0 1151.839 1151.839" enable-background="new 0 0 1151.839 1151.839"
	 xml:space="preserve">
<g>
	<linearGradient id="SVGID_1_" gradientUnits="userSpaceOnUse" x1="60.6372" y1="696.2368" x2="1016.1973" y2="696.2368">
		<stop  offset="0" style="stop-color:#573E46"/>
		<stop  offset="1" style="stop-color:#AD0731"/>
	</linearGradient>
	<path fill="url(#SVGID_1_)" d="M138.435,753.196c-47.808-43.683-77.798-106.541-77.798-176.404
		c0-131.935,106.954-238.889,238.889-238.889c131.935,0,238.889,106.954,238.889,238.889c0-131.935,106.954-238.889,238.889-238.889
		s238.893,106.954,238.893,238.889c0,70.786-30.787,134.381-79.705,178.125l-0.695,0.619L538.416,1054.57l-397.38-299.033
		L138.435,753.196z"/>
</g>
<g>
	
	<!-- <image overflow="visible" opacity="0.5" width="4107" height="3112" xlink:href="2E4E0ECD.png"  transform="matrix(0.24 0 0 0.24 119.6475 155.2759)">
	</image> -->
	<g>
		<linearGradient id="SVGID_2_" gradientUnits="userSpaceOnUse" x1="476.5439" y1="144.2944" x2="853.2026" y2="796.6865">
			<stop  offset="0" style="stop-color:#EA5B61"/>
			<stop  offset="1" style="stop-color:#E5352B"/>
		</linearGradient>
		<path fill="url(#SVGID_2_)" d="M225.445,578.569c-47.808-43.683-77.798-106.541-77.798-176.404
			c0-131.935,106.954-238.889,238.889-238.889c131.935,0,238.889,106.954,238.889,238.889
			c0-131.935,106.954-238.889,238.889-238.889c131.935,0,238.888,106.954,238.888,238.889c0,70.786-30.787,134.381-79.701,178.125
			l-0.695,0.62L625.426,879.943L228.045,580.91L225.445,578.569z"/>
	</g>
</g>
<path display="none" fill="#231815" d="M1294.972,462.981c-47.953-47.953-111.71-74.362-179.526-74.362
	s-131.574,26.409-179.527,74.362c-26.798,26.798-46.87,58.537-59.362,93.157c-12.493-34.62-32.564-66.358-59.363-93.157
	c-47.953-47.953-111.71-74.362-179.526-74.362c-67.816,0-131.573,26.409-179.527,74.362
	c-47.953,47.953-74.362,111.71-74.362,179.527c0,36.291,7.501,71.342,22.294,104.181c14.288,31.715,34.604,59.741,60.385,83.297
	c0.027,0.024,0.054,0.049,0.081,0.073l2.601,2.341c0.327,0.294,0.667,0.574,1.018,0.838l397.38,299.033
	c2.67,2.01,5.845,3.015,9.019,3.015s6.349-1.005,9.02-3.015l29.025-21.842c6.619-4.981,7.947-14.385,2.966-21.005
	c-4.981-6.619-14.385-7.946-21.004-2.966l-20.006,15.055L488.723,809.665l-2.075-1.868c-46.313-42.338-72.87-102.579-72.87-165.289
	c0-123.453,100.437-223.889,223.889-223.889s223.889,100.436,223.889,223.889c0,8.284,6.716,15,15,15s15-6.716,15-15
	c0-123.453,100.436-223.889,223.889-223.889s223.889,100.436,223.889,223.889c0,63.64-27.228,124.489-74.687,166.93l-0.229,0.205
	L933.796,1058.44c-6.62,4.981-7.948,14.385-2.966,21.005c4.981,6.618,14.385,7.948,21.004,2.966l331.122-249.172
	c0.332-0.25,0.654-0.514,0.965-0.791l0.71-0.634c53.83-48.14,84.703-117.139,84.703-189.306
	C1369.334,574.692,1342.925,510.935,1294.972,462.981z"/>
</svg>
